<mxfile host="app.diagrams.net" agent="Mozilla/5.0 (Windows NT 10.0; Win64; x64) AppleWebKit/537.36 (KHTML, like Gecko) Chrome/129.0.0.0 Safari/537.36" version="24.8.0" pages="8">
  <diagram name="Page-1" id="S02piQm8fY62C_xFTkHl">
    <mxGraphModel dx="3596" dy="1018" grid="1" gridSize="10" guides="1" tooltips="1" connect="1" arrows="1" fold="1" page="1" pageScale="1" pageWidth="827" pageHeight="1169" math="0" shadow="0">
      <root>
        <mxCell id="0" />
        <mxCell id="1" parent="0" />
        <mxCell id="gcq-mMXr0vmz9rN8ErNZ-2" value="" style="edgeStyle=orthogonalEdgeStyle;rounded=0;orthogonalLoop=1;jettySize=auto;html=1;" edge="1" parent="1" source="JpfpQvxCL7p-_CtwZ7gL-1">
          <mxGeometry relative="1" as="geometry">
            <mxPoint x="440" y="235" as="targetPoint" />
          </mxGeometry>
        </mxCell>
        <mxCell id="JpfpQvxCL7p-_CtwZ7gL-1" value="Start" style="ellipse;whiteSpace=wrap;html=1;" vertex="1" parent="1">
          <mxGeometry x="380" y="110" width="120" height="80" as="geometry" />
        </mxCell>
        <mxCell id="DT7VOPM8TI2RJhQIQWmK-2" value="" style="edgeStyle=orthogonalEdgeStyle;rounded=0;orthogonalLoop=1;jettySize=auto;html=1;entryX=0.05;entryY=0.395;entryDx=0;entryDy=0;entryPerimeter=0;" edge="1" parent="1" source="DBmQoZW76izyamdhOPzD-1" target="DT7VOPM8TI2RJhQIQWmK-4">
          <mxGeometry relative="1" as="geometry">
            <mxPoint x="720.0000000000005" y="385.00000000000045" as="targetPoint" />
          </mxGeometry>
        </mxCell>
        <mxCell id="DT7VOPM8TI2RJhQIQWmK-3" value="True" style="edgeLabel;html=1;align=center;verticalAlign=middle;resizable=0;points=[];" vertex="1" connectable="0" parent="DT7VOPM8TI2RJhQIQWmK-2">
          <mxGeometry x="-0.3714" y="-1" relative="1" as="geometry">
            <mxPoint as="offset" />
          </mxGeometry>
        </mxCell>
        <mxCell id="DBmQoZW76izyamdhOPzD-1" value="Apakah Pengguna Sudah Masuk?" style="rhombus;whiteSpace=wrap;html=1;" vertex="1" parent="1">
          <mxGeometry x="400" y="230" width="80" height="80" as="geometry" />
        </mxCell>
        <mxCell id="8JmZHn0OIq7Iw6K2mzaQ-13" style="edgeStyle=orthogonalEdgeStyle;rounded=0;orthogonalLoop=1;jettySize=auto;html=1;exitX=0;exitY=0.5;exitDx=0;exitDy=0;entryX=0.5;entryY=0;entryDx=0;entryDy=0;" edge="1" parent="1" target="8JmZHn0OIq7Iw6K2mzaQ-14" source="DBmQoZW76izyamdhOPzD-1">
          <mxGeometry relative="1" as="geometry">
            <mxPoint x="330" y="315" as="sourcePoint" />
          </mxGeometry>
        </mxCell>
        <mxCell id="8JmZHn0OIq7Iw6K2mzaQ-46" value="False" style="edgeLabel;html=1;align=center;verticalAlign=middle;resizable=0;points=[];" vertex="1" connectable="0" parent="8JmZHn0OIq7Iw6K2mzaQ-13">
          <mxGeometry x="-0.6471" y="2" relative="1" as="geometry">
            <mxPoint as="offset" />
          </mxGeometry>
        </mxCell>
        <mxCell id="8JmZHn0OIq7Iw6K2mzaQ-14" value="" style="verticalLabelPosition=bottom;verticalAlign=top;html=1;shape=process;whiteSpace=wrap;rounded=1;size=0.14;arcSize=6;" vertex="1" parent="1">
          <mxGeometry x="280" y="370" width="100" height="60" as="geometry" />
        </mxCell>
        <mxCell id="8JmZHn0OIq7Iw6K2mzaQ-15" value="" style="edgeStyle=orthogonalEdgeStyle;rounded=0;orthogonalLoop=1;jettySize=auto;html=1;" edge="1" parent="1" source="8JmZHn0OIq7Iw6K2mzaQ-16" target="8JmZHn0OIq7Iw6K2mzaQ-18">
          <mxGeometry relative="1" as="geometry" />
        </mxCell>
        <mxCell id="8JmZHn0OIq7Iw6K2mzaQ-16" value="Tampilkan Menu" style="text;html=1;align=center;verticalAlign=middle;resizable=0;points=[];autosize=1;strokeColor=none;fillColor=none;" vertex="1" parent="1">
          <mxGeometry x="275" y="385" width="110" height="30" as="geometry" />
        </mxCell>
        <mxCell id="8JmZHn0OIq7Iw6K2mzaQ-17" value="" style="edgeStyle=orthogonalEdgeStyle;rounded=0;orthogonalLoop=1;jettySize=auto;html=1;" edge="1" parent="1" source="8JmZHn0OIq7Iw6K2mzaQ-18" target="8JmZHn0OIq7Iw6K2mzaQ-23">
          <mxGeometry relative="1" as="geometry" />
        </mxCell>
        <mxCell id="8JmZHn0OIq7Iw6K2mzaQ-18" value="Input&lt;div&gt;Silahkan Pilih Menu&lt;/div&gt;" style="shape=parallelogram;perimeter=parallelogramPerimeter;whiteSpace=wrap;html=1;fixedSize=1;" vertex="1" parent="1">
          <mxGeometry x="270" y="465" width="120" height="60" as="geometry" />
        </mxCell>
        <mxCell id="8JmZHn0OIq7Iw6K2mzaQ-19" value="" style="edgeStyle=orthogonalEdgeStyle;rounded=0;orthogonalLoop=1;jettySize=auto;html=1;entryX=0.5;entryY=0;entryDx=0;entryDy=0;" edge="1" parent="1" source="8JmZHn0OIq7Iw6K2mzaQ-23" target="8JmZHn0OIq7Iw6K2mzaQ-25">
          <mxGeometry relative="1" as="geometry" />
        </mxCell>
        <mxCell id="8JmZHn0OIq7Iw6K2mzaQ-20" value="True" style="edgeLabel;html=1;align=center;verticalAlign=middle;resizable=0;points=[];" vertex="1" connectable="0" parent="8JmZHn0OIq7Iw6K2mzaQ-19">
          <mxGeometry x="-0.3222" y="1" relative="1" as="geometry">
            <mxPoint as="offset" />
          </mxGeometry>
        </mxCell>
        <mxCell id="8JmZHn0OIq7Iw6K2mzaQ-21" value="" style="edgeStyle=orthogonalEdgeStyle;rounded=0;orthogonalLoop=1;jettySize=auto;html=1;" edge="1" parent="1" source="8JmZHn0OIq7Iw6K2mzaQ-23" target="8JmZHn0OIq7Iw6K2mzaQ-34">
          <mxGeometry relative="1" as="geometry" />
        </mxCell>
        <mxCell id="8JmZHn0OIq7Iw6K2mzaQ-22" value="False" style="edgeLabel;html=1;align=center;verticalAlign=middle;resizable=0;points=[];" vertex="1" connectable="0" parent="8JmZHn0OIq7Iw6K2mzaQ-21">
          <mxGeometry x="-0.4283" relative="1" as="geometry">
            <mxPoint as="offset" />
          </mxGeometry>
        </mxCell>
        <mxCell id="8JmZHn0OIq7Iw6K2mzaQ-23" value="Pilihan 1?" style="rhombus;whiteSpace=wrap;html=1;" vertex="1" parent="1">
          <mxGeometry x="290" y="575" width="80" height="80" as="geometry" />
        </mxCell>
        <mxCell id="8JmZHn0OIq7Iw6K2mzaQ-24" value="" style="edgeStyle=orthogonalEdgeStyle;rounded=0;orthogonalLoop=1;jettySize=auto;html=1;" edge="1" parent="1" source="8JmZHn0OIq7Iw6K2mzaQ-25" target="8JmZHn0OIq7Iw6K2mzaQ-30">
          <mxGeometry relative="1" as="geometry" />
        </mxCell>
        <mxCell id="8JmZHn0OIq7Iw6K2mzaQ-25" value="Input&lt;div&gt;Nama dan Sandi&lt;/div&gt;" style="shape=parallelogram;perimeter=parallelogramPerimeter;whiteSpace=wrap;html=1;fixedSize=1;" vertex="1" parent="1">
          <mxGeometry x="514.38" y="650" width="120" height="60" as="geometry" />
        </mxCell>
        <mxCell id="8JmZHn0OIq7Iw6K2mzaQ-26" value="" style="edgeStyle=orthogonalEdgeStyle;rounded=0;orthogonalLoop=1;jettySize=auto;html=1;" edge="1" parent="1" source="8JmZHn0OIq7Iw6K2mzaQ-30" target="8JmZHn0OIq7Iw6K2mzaQ-31">
          <mxGeometry relative="1" as="geometry" />
        </mxCell>
        <mxCell id="8JmZHn0OIq7Iw6K2mzaQ-27" value="False" style="edgeLabel;html=1;align=center;verticalAlign=middle;resizable=0;points=[];" vertex="1" connectable="0" parent="8JmZHn0OIq7Iw6K2mzaQ-26">
          <mxGeometry x="-0.3287" y="-1" relative="1" as="geometry">
            <mxPoint as="offset" />
          </mxGeometry>
        </mxCell>
        <mxCell id="8JmZHn0OIq7Iw6K2mzaQ-28" value="" style="edgeStyle=orthogonalEdgeStyle;rounded=0;orthogonalLoop=1;jettySize=auto;html=1;" edge="1" parent="1" source="8JmZHn0OIq7Iw6K2mzaQ-30">
          <mxGeometry relative="1" as="geometry">
            <mxPoint x="745" y="885" as="targetPoint" />
          </mxGeometry>
        </mxCell>
        <mxCell id="8JmZHn0OIq7Iw6K2mzaQ-29" value="True" style="edgeLabel;html=1;align=center;verticalAlign=middle;resizable=0;points=[];" vertex="1" connectable="0" parent="8JmZHn0OIq7Iw6K2mzaQ-28">
          <mxGeometry x="-0.3405" y="5" relative="1" as="geometry">
            <mxPoint as="offset" />
          </mxGeometry>
        </mxCell>
        <mxCell id="8JmZHn0OIq7Iw6K2mzaQ-30" value="Validasi?" style="rhombus;whiteSpace=wrap;html=1;" vertex="1" parent="1">
          <mxGeometry x="535" y="790" width="80" height="80" as="geometry" />
        </mxCell>
        <mxCell id="0WnrDB2P665mcG8jykhN-12" style="edgeStyle=orthogonalEdgeStyle;rounded=0;orthogonalLoop=1;jettySize=auto;html=1;exitX=0.5;exitY=1;exitDx=0;exitDy=0;" edge="1" parent="1" source="8JmZHn0OIq7Iw6K2mzaQ-31">
          <mxGeometry relative="1" as="geometry">
            <mxPoint x="730" y="1020" as="targetPoint" />
            <Array as="points">
              <mxPoint x="445" y="1020" />
            </Array>
          </mxGeometry>
        </mxCell>
        <mxCell id="8JmZHn0OIq7Iw6K2mzaQ-31" value="Output&lt;div&gt;Nama atau sandi Salah&lt;/div&gt;" style="shape=parallelogram;perimeter=parallelogramPerimeter;whiteSpace=wrap;html=1;fixedSize=1;" vertex="1" parent="1">
          <mxGeometry x="385" y="885" width="120" height="60" as="geometry" />
        </mxCell>
        <mxCell id="8JmZHn0OIq7Iw6K2mzaQ-32" value="" style="edgeStyle=orthogonalEdgeStyle;rounded=0;orthogonalLoop=1;jettySize=auto;html=1;" edge="1" parent="1" source="8JmZHn0OIq7Iw6K2mzaQ-34" target="8JmZHn0OIq7Iw6K2mzaQ-36">
          <mxGeometry relative="1" as="geometry" />
        </mxCell>
        <mxCell id="8JmZHn0OIq7Iw6K2mzaQ-33" value="True" style="edgeLabel;html=1;align=center;verticalAlign=middle;resizable=0;points=[];" vertex="1" connectable="0" parent="8JmZHn0OIq7Iw6K2mzaQ-32">
          <mxGeometry x="-0.337" y="2" relative="1" as="geometry">
            <mxPoint as="offset" />
          </mxGeometry>
        </mxCell>
        <mxCell id="0WnrDB2P665mcG8jykhN-3" value="" style="edgeStyle=orthogonalEdgeStyle;rounded=0;orthogonalLoop=1;jettySize=auto;html=1;" edge="1" parent="1" source="8JmZHn0OIq7Iw6K2mzaQ-34" target="0WnrDB2P665mcG8jykhN-2">
          <mxGeometry relative="1" as="geometry" />
        </mxCell>
        <mxCell id="0WnrDB2P665mcG8jykhN-4" value="False" style="edgeLabel;html=1;align=center;verticalAlign=middle;resizable=0;points=[];" vertex="1" connectable="0" parent="0WnrDB2P665mcG8jykhN-3">
          <mxGeometry x="-0.3758" y="2" relative="1" as="geometry">
            <mxPoint as="offset" />
          </mxGeometry>
        </mxCell>
        <mxCell id="8JmZHn0OIq7Iw6K2mzaQ-34" value="Pilihan 2?" style="rhombus;whiteSpace=wrap;html=1;" vertex="1" parent="1">
          <mxGeometry x="55" y="750" width="80" height="80" as="geometry" />
        </mxCell>
        <mxCell id="8JmZHn0OIq7Iw6K2mzaQ-35" value="" style="edgeStyle=orthogonalEdgeStyle;rounded=0;orthogonalLoop=1;jettySize=auto;html=1;" edge="1" parent="1" source="8JmZHn0OIq7Iw6K2mzaQ-36" target="8JmZHn0OIq7Iw6K2mzaQ-41">
          <mxGeometry relative="1" as="geometry" />
        </mxCell>
        <mxCell id="8JmZHn0OIq7Iw6K2mzaQ-36" value="Nama = Input&amp;nbsp;&lt;div&gt;Nama Baru&lt;/div&gt;" style="shape=parallelogram;perimeter=parallelogramPerimeter;whiteSpace=wrap;html=1;fixedSize=1;" vertex="1" parent="1">
          <mxGeometry x="170" y="875" width="120" height="60" as="geometry" />
        </mxCell>
        <mxCell id="8JmZHn0OIq7Iw6K2mzaQ-37" value="" style="edgeStyle=orthogonalEdgeStyle;rounded=0;orthogonalLoop=1;jettySize=auto;html=1;" edge="1" parent="1" source="8JmZHn0OIq7Iw6K2mzaQ-41" target="8JmZHn0OIq7Iw6K2mzaQ-42">
          <mxGeometry relative="1" as="geometry" />
        </mxCell>
        <mxCell id="8JmZHn0OIq7Iw6K2mzaQ-38" value="True" style="edgeLabel;html=1;align=center;verticalAlign=middle;resizable=0;points=[];" vertex="1" connectable="0" parent="8JmZHn0OIq7Iw6K2mzaQ-37">
          <mxGeometry x="-0.3638" y="-3" relative="1" as="geometry">
            <mxPoint as="offset" />
          </mxGeometry>
        </mxCell>
        <mxCell id="8JmZHn0OIq7Iw6K2mzaQ-39" value="" style="edgeStyle=orthogonalEdgeStyle;rounded=0;orthogonalLoop=1;jettySize=auto;html=1;" edge="1" parent="1" source="8JmZHn0OIq7Iw6K2mzaQ-41" target="8JmZHn0OIq7Iw6K2mzaQ-44">
          <mxGeometry relative="1" as="geometry" />
        </mxCell>
        <mxCell id="8JmZHn0OIq7Iw6K2mzaQ-40" value="False" style="edgeLabel;html=1;align=center;verticalAlign=middle;resizable=0;points=[];" vertex="1" connectable="0" parent="8JmZHn0OIq7Iw6K2mzaQ-39">
          <mxGeometry x="-0.2876" y="1" relative="1" as="geometry">
            <mxPoint as="offset" />
          </mxGeometry>
        </mxCell>
        <mxCell id="8JmZHn0OIq7Iw6K2mzaQ-41" value="validasi?" style="rhombus;whiteSpace=wrap;html=1;" vertex="1" parent="1">
          <mxGeometry x="190" y="1005" width="80" height="80" as="geometry" />
        </mxCell>
        <mxCell id="0WnrDB2P665mcG8jykhN-14" style="edgeStyle=orthogonalEdgeStyle;rounded=0;orthogonalLoop=1;jettySize=auto;html=1;exitX=0.5;exitY=1;exitDx=0;exitDy=0;" edge="1" parent="1" source="8JmZHn0OIq7Iw6K2mzaQ-42">
          <mxGeometry relative="1" as="geometry">
            <mxPoint x="380.5" y="1480" as="targetPoint" />
          </mxGeometry>
        </mxCell>
        <mxCell id="8JmZHn0OIq7Iw6K2mzaQ-42" value="Output&lt;div&gt;Nama sudah digunakan&lt;/div&gt;" style="shape=parallelogram;perimeter=parallelogramPerimeter;whiteSpace=wrap;html=1;fixedSize=1;" vertex="1" parent="1">
          <mxGeometry x="320" y="1110" width="120" height="60" as="geometry" />
        </mxCell>
        <mxCell id="8JmZHn0OIq7Iw6K2mzaQ-43" value="" style="edgeStyle=orthogonalEdgeStyle;rounded=0;orthogonalLoop=1;jettySize=auto;html=1;" edge="1" parent="1" source="8JmZHn0OIq7Iw6K2mzaQ-44" target="8JmZHn0OIq7Iw6K2mzaQ-45">
          <mxGeometry relative="1" as="geometry" />
        </mxCell>
        <mxCell id="8JmZHn0OIq7Iw6K2mzaQ-44" value="Sandi = Input&lt;div&gt;Buat sandi Baru&lt;/div&gt;" style="shape=parallelogram;perimeter=parallelogramPerimeter;whiteSpace=wrap;html=1;fixedSize=1;" vertex="1" parent="1">
          <mxGeometry x="10" y="1100" width="120" height="60" as="geometry" />
        </mxCell>
        <mxCell id="0WnrDB2P665mcG8jykhN-13" style="edgeStyle=orthogonalEdgeStyle;rounded=0;orthogonalLoop=1;jettySize=auto;html=1;exitX=0.5;exitY=1;exitDx=0;exitDy=0;" edge="1" parent="1" source="8JmZHn0OIq7Iw6K2mzaQ-45">
          <mxGeometry relative="1" as="geometry">
            <mxPoint x="70.5" y="1480" as="targetPoint" />
          </mxGeometry>
        </mxCell>
        <mxCell id="8JmZHn0OIq7Iw6K2mzaQ-45" value="Output&lt;div&gt;Pendaftaran Berhasil&lt;/div&gt;" style="shape=parallelogram;perimeter=parallelogramPerimeter;whiteSpace=wrap;html=1;fixedSize=1;" vertex="1" parent="1">
          <mxGeometry x="10" y="1240" width="120" height="60" as="geometry" />
        </mxCell>
        <mxCell id="0WnrDB2P665mcG8jykhN-11" style="edgeStyle=orthogonalEdgeStyle;rounded=0;orthogonalLoop=1;jettySize=auto;html=1;exitX=0.5;exitY=1;exitDx=0;exitDy=0;entryX=0;entryY=0;entryDx=0;entryDy=0;" edge="1" parent="1" source="0WnrDB2P665mcG8jykhN-1" target="DBmQoZW76izyamdhOPzD-1">
          <mxGeometry relative="1" as="geometry">
            <Array as="points">
              <mxPoint x="735" y="1480" />
              <mxPoint x="-470" y="1480" />
              <mxPoint x="-470" y="250" />
            </Array>
          </mxGeometry>
        </mxCell>
        <mxCell id="0WnrDB2P665mcG8jykhN-1" value="Output&lt;div&gt;Selamat Bekerja&lt;/div&gt;" style="shape=parallelogram;perimeter=parallelogramPerimeter;whiteSpace=wrap;html=1;fixedSize=1;" vertex="1" parent="1">
          <mxGeometry x="675" y="885" width="120" height="60" as="geometry" />
        </mxCell>
        <mxCell id="0WnrDB2P665mcG8jykhN-6" value="" style="edgeStyle=orthogonalEdgeStyle;rounded=0;orthogonalLoop=1;jettySize=auto;html=1;" edge="1" parent="1" source="0WnrDB2P665mcG8jykhN-2" target="0WnrDB2P665mcG8jykhN-5">
          <mxGeometry relative="1" as="geometry" />
        </mxCell>
        <mxCell id="0WnrDB2P665mcG8jykhN-9" value="True" style="edgeLabel;html=1;align=center;verticalAlign=middle;resizable=0;points=[];" vertex="1" connectable="0" parent="0WnrDB2P665mcG8jykhN-6">
          <mxGeometry x="-0.6351" y="-4" relative="1" as="geometry">
            <mxPoint as="offset" />
          </mxGeometry>
        </mxCell>
        <mxCell id="0WnrDB2P665mcG8jykhN-8" value="" style="edgeStyle=orthogonalEdgeStyle;rounded=0;orthogonalLoop=1;jettySize=auto;html=1;" edge="1" parent="1" source="0WnrDB2P665mcG8jykhN-2" target="0WnrDB2P665mcG8jykhN-7">
          <mxGeometry relative="1" as="geometry" />
        </mxCell>
        <mxCell id="0WnrDB2P665mcG8jykhN-10" value="false" style="edgeLabel;html=1;align=center;verticalAlign=middle;resizable=0;points=[];" vertex="1" connectable="0" parent="0WnrDB2P665mcG8jykhN-8">
          <mxGeometry x="-0.413" y="4" relative="1" as="geometry">
            <mxPoint as="offset" />
          </mxGeometry>
        </mxCell>
        <mxCell id="0WnrDB2P665mcG8jykhN-2" value="Pilihan 3?" style="rhombus;whiteSpace=wrap;html=1;" vertex="1" parent="1">
          <mxGeometry x="-250" y="875" width="80" height="80" as="geometry" />
        </mxCell>
        <mxCell id="0WnrDB2P665mcG8jykhN-17" style="edgeStyle=orthogonalEdgeStyle;rounded=0;orthogonalLoop=1;jettySize=auto;html=1;exitX=0.5;exitY=1;exitDx=0;exitDy=0;entryX=0.5;entryY=0;entryDx=0;entryDy=0;" edge="1" parent="1" source="0WnrDB2P665mcG8jykhN-5" target="DT7VOPM8TI2RJhQIQWmK-79">
          <mxGeometry relative="1" as="geometry">
            <mxPoint x="240" y="1904.5454545454545" as="targetPoint" />
            <Array as="points">
              <mxPoint x="-80" y="1680" />
              <mxPoint x="400" y="1680" />
            </Array>
          </mxGeometry>
        </mxCell>
        <mxCell id="0WnrDB2P665mcG8jykhN-5" value="Output&lt;div&gt;Toko sudah tutup&lt;/div&gt;" style="shape=parallelogram;perimeter=parallelogramPerimeter;whiteSpace=wrap;html=1;fixedSize=1;" vertex="1" parent="1">
          <mxGeometry x="-140" y="1180" width="120" height="60" as="geometry" />
        </mxCell>
        <mxCell id="0WnrDB2P665mcG8jykhN-18" style="edgeStyle=orthogonalEdgeStyle;rounded=0;orthogonalLoop=1;jettySize=auto;html=1;exitX=0.5;exitY=1;exitDx=0;exitDy=0;" edge="1" parent="1" source="0WnrDB2P665mcG8jykhN-7">
          <mxGeometry relative="1" as="geometry">
            <mxPoint x="-329.71428571428567" y="1484.5714285714287" as="targetPoint" />
          </mxGeometry>
        </mxCell>
        <mxCell id="0WnrDB2P665mcG8jykhN-7" value="Output&lt;div&gt;Pilihan Tidak tersedia&lt;/div&gt;" style="shape=parallelogram;perimeter=parallelogramPerimeter;whiteSpace=wrap;html=1;fixedSize=1;" vertex="1" parent="1">
          <mxGeometry x="-390" y="1015" width="120" height="55" as="geometry" />
        </mxCell>
        <mxCell id="DT7VOPM8TI2RJhQIQWmK-6" value="" style="edgeStyle=orthogonalEdgeStyle;rounded=0;orthogonalLoop=1;jettySize=auto;html=1;" edge="1" parent="1" source="DT7VOPM8TI2RJhQIQWmK-4" target="DT7VOPM8TI2RJhQIQWmK-5">
          <mxGeometry relative="1" as="geometry" />
        </mxCell>
        <mxCell id="DT7VOPM8TI2RJhQIQWmK-4" value="Output&lt;div&gt;&lt;div&gt;Menu Toko Handphone&lt;/div&gt;&lt;div&gt;1. Tambah HP ke stok&lt;/div&gt;&lt;div&gt;2. Lihat stok HP&lt;/div&gt;&lt;div&gt;&amp;nbsp; &amp;nbsp;Khusus &quot;admin&quot;&lt;/div&gt;&lt;div&gt;&amp;nbsp;3. Ubah data HP&lt;/div&gt;&lt;div&gt;&amp;nbsp;4. Hapus HP dari stok&lt;/div&gt;&lt;div&gt;&amp;nbsp;5. Lihat stok HP secara terbalik&lt;/div&gt;&lt;div&gt;&amp;nbsp;6. Keluar dari sistem&lt;/div&gt;&lt;/div&gt;&lt;div&gt;&lt;br&gt;&lt;/div&gt;" style="shape=parallelogram;perimeter=parallelogramPerimeter;whiteSpace=wrap;html=1;fixedSize=1;" vertex="1" parent="1">
          <mxGeometry x="700" y="210" width="300" height="155" as="geometry" />
        </mxCell>
        <mxCell id="DT7VOPM8TI2RJhQIQWmK-8" value="" style="edgeStyle=orthogonalEdgeStyle;rounded=0;orthogonalLoop=1;jettySize=auto;html=1;" edge="1" parent="1" source="DT7VOPM8TI2RJhQIQWmK-5" target="DT7VOPM8TI2RJhQIQWmK-7">
          <mxGeometry relative="1" as="geometry" />
        </mxCell>
        <mxCell id="DT7VOPM8TI2RJhQIQWmK-42" value="True" style="edgeLabel;html=1;align=center;verticalAlign=middle;resizable=0;points=[];" vertex="1" connectable="0" parent="DT7VOPM8TI2RJhQIQWmK-8">
          <mxGeometry x="-0.2034" y="-2" relative="1" as="geometry">
            <mxPoint x="1" as="offset" />
          </mxGeometry>
        </mxCell>
        <mxCell id="DT7VOPM8TI2RJhQIQWmK-12" value="" style="edgeStyle=orthogonalEdgeStyle;rounded=0;orthogonalLoop=1;jettySize=auto;html=1;" edge="1" parent="1" source="DT7VOPM8TI2RJhQIQWmK-5" target="DT7VOPM8TI2RJhQIQWmK-11">
          <mxGeometry relative="1" as="geometry" />
        </mxCell>
        <mxCell id="DT7VOPM8TI2RJhQIQWmK-43" value="False" style="edgeLabel;html=1;align=center;verticalAlign=middle;resizable=0;points=[];" vertex="1" connectable="0" parent="DT7VOPM8TI2RJhQIQWmK-12">
          <mxGeometry x="-0.1653" y="2" relative="1" as="geometry">
            <mxPoint x="1" as="offset" />
          </mxGeometry>
        </mxCell>
        <mxCell id="DT7VOPM8TI2RJhQIQWmK-5" value="Pilihan 1?" style="rhombus;whiteSpace=wrap;html=1;" vertex="1" parent="1">
          <mxGeometry x="2022" y="415" width="80" height="80" as="geometry" />
        </mxCell>
        <mxCell id="DT7VOPM8TI2RJhQIQWmK-10" value="" style="edgeStyle=orthogonalEdgeStyle;rounded=0;orthogonalLoop=1;jettySize=auto;html=1;" edge="1" parent="1" source="DT7VOPM8TI2RJhQIQWmK-7" target="DT7VOPM8TI2RJhQIQWmK-9">
          <mxGeometry relative="1" as="geometry" />
        </mxCell>
        <mxCell id="DT7VOPM8TI2RJhQIQWmK-7" value="input&lt;div&gt;Merk Hp,Model,Harga,Stok Hp&lt;/div&gt;" style="shape=parallelogram;perimeter=parallelogramPerimeter;whiteSpace=wrap;html=1;fixedSize=1;" vertex="1" parent="1">
          <mxGeometry x="2232" y="575" width="120" height="60" as="geometry" />
        </mxCell>
        <mxCell id="DT7VOPM8TI2RJhQIQWmK-68" style="edgeStyle=orthogonalEdgeStyle;rounded=0;orthogonalLoop=1;jettySize=auto;html=1;" edge="1" parent="1">
          <mxGeometry relative="1" as="geometry">
            <mxPoint x="730" y="1480" as="targetPoint" />
            <mxPoint x="2451.857142857143" y="777.5" as="sourcePoint" />
            <Array as="points">
              <mxPoint x="2452" y="1480" />
            </Array>
          </mxGeometry>
        </mxCell>
        <mxCell id="DT7VOPM8TI2RJhQIQWmK-80" style="edgeStyle=orthogonalEdgeStyle;rounded=0;orthogonalLoop=1;jettySize=auto;html=1;exitX=0.5;exitY=1;exitDx=0;exitDy=0;" edge="1" parent="1" source="DT7VOPM8TI2RJhQIQWmK-9">
          <mxGeometry relative="1" as="geometry">
            <mxPoint x="2293.333333333334" y="1470" as="targetPoint" />
          </mxGeometry>
        </mxCell>
        <mxCell id="DT7VOPM8TI2RJhQIQWmK-9" value="Output&lt;div&gt;Tambah Hp&lt;/div&gt;" style="shape=parallelogram;perimeter=parallelogramPerimeter;whiteSpace=wrap;html=1;fixedSize=1;" vertex="1" parent="1">
          <mxGeometry x="2232" y="715" width="120" height="60" as="geometry" />
        </mxCell>
        <mxCell id="DT7VOPM8TI2RJhQIQWmK-15" style="edgeStyle=orthogonalEdgeStyle;rounded=0;orthogonalLoop=1;jettySize=auto;html=1;exitX=1;exitY=0.5;exitDx=0;exitDy=0;entryX=0.5;entryY=0;entryDx=0;entryDy=0;" edge="1" parent="1" source="DT7VOPM8TI2RJhQIQWmK-11" target="DT7VOPM8TI2RJhQIQWmK-13">
          <mxGeometry relative="1" as="geometry" />
        </mxCell>
        <mxCell id="DT7VOPM8TI2RJhQIQWmK-44" value="True" style="edgeLabel;html=1;align=center;verticalAlign=middle;resizable=0;points=[];" vertex="1" connectable="0" parent="DT7VOPM8TI2RJhQIQWmK-15">
          <mxGeometry x="-0.327" y="-1" relative="1" as="geometry">
            <mxPoint x="-1" as="offset" />
          </mxGeometry>
        </mxCell>
        <mxCell id="DT7VOPM8TI2RJhQIQWmK-17" value="" style="edgeStyle=orthogonalEdgeStyle;rounded=0;orthogonalLoop=1;jettySize=auto;html=1;" edge="1" parent="1" source="DT7VOPM8TI2RJhQIQWmK-11" target="DT7VOPM8TI2RJhQIQWmK-16">
          <mxGeometry relative="1" as="geometry" />
        </mxCell>
        <mxCell id="DT7VOPM8TI2RJhQIQWmK-45" value="False" style="edgeLabel;html=1;align=center;verticalAlign=middle;resizable=0;points=[];" vertex="1" connectable="0" parent="DT7VOPM8TI2RJhQIQWmK-17">
          <mxGeometry x="-0.3056" y="1" relative="1" as="geometry">
            <mxPoint x="-1" as="offset" />
          </mxGeometry>
        </mxCell>
        <mxCell id="DT7VOPM8TI2RJhQIQWmK-11" value="Pilihan 2 ?" style="rhombus;whiteSpace=wrap;html=1;" vertex="1" parent="1">
          <mxGeometry x="1816" y="510" width="80" height="80" as="geometry" />
        </mxCell>
        <mxCell id="DT7VOPM8TI2RJhQIQWmK-70" style="edgeStyle=orthogonalEdgeStyle;rounded=0;orthogonalLoop=1;jettySize=auto;html=1;exitX=0.5;exitY=1;exitDx=0;exitDy=0;" edge="1" parent="1" source="DT7VOPM8TI2RJhQIQWmK-13">
          <mxGeometry relative="1" as="geometry">
            <mxPoint x="2080" y="1488.5555013020833" as="targetPoint" />
          </mxGeometry>
        </mxCell>
        <mxCell id="DT7VOPM8TI2RJhQIQWmK-13" value="" style="verticalLabelPosition=bottom;verticalAlign=top;html=1;shape=process;whiteSpace=wrap;rounded=1;size=0.14;arcSize=6;" vertex="1" parent="1">
          <mxGeometry x="2030" y="615" width="100" height="60" as="geometry" />
        </mxCell>
        <mxCell id="DT7VOPM8TI2RJhQIQWmK-14" value="Lihat Stock" style="text;html=1;align=center;verticalAlign=middle;resizable=0;points=[];autosize=1;strokeColor=none;fillColor=none;" vertex="1" parent="1">
          <mxGeometry x="2040" y="630" width="80" height="30" as="geometry" />
        </mxCell>
        <mxCell id="DT7VOPM8TI2RJhQIQWmK-19" value="" style="edgeStyle=orthogonalEdgeStyle;rounded=0;orthogonalLoop=1;jettySize=auto;html=1;" edge="1" parent="1" source="DT7VOPM8TI2RJhQIQWmK-16" target="DT7VOPM8TI2RJhQIQWmK-18">
          <mxGeometry relative="1" as="geometry" />
        </mxCell>
        <mxCell id="DT7VOPM8TI2RJhQIQWmK-46" value="True" style="edgeLabel;html=1;align=center;verticalAlign=middle;resizable=0;points=[];" vertex="1" connectable="0" parent="DT7VOPM8TI2RJhQIQWmK-19">
          <mxGeometry x="-0.4208" relative="1" as="geometry">
            <mxPoint x="1" as="offset" />
          </mxGeometry>
        </mxCell>
        <mxCell id="DT7VOPM8TI2RJhQIQWmK-29" value="" style="edgeStyle=orthogonalEdgeStyle;rounded=0;orthogonalLoop=1;jettySize=auto;html=1;" edge="1" parent="1" source="DT7VOPM8TI2RJhQIQWmK-16" target="DT7VOPM8TI2RJhQIQWmK-28">
          <mxGeometry relative="1" as="geometry" />
        </mxCell>
        <mxCell id="DT7VOPM8TI2RJhQIQWmK-47" value="False" style="edgeLabel;html=1;align=center;verticalAlign=middle;resizable=0;points=[];" vertex="1" connectable="0" parent="DT7VOPM8TI2RJhQIQWmK-29">
          <mxGeometry x="-0.2299" y="2" relative="1" as="geometry">
            <mxPoint x="1" as="offset" />
          </mxGeometry>
        </mxCell>
        <mxCell id="DT7VOPM8TI2RJhQIQWmK-16" value="Pilihan 3 ?" style="rhombus;whiteSpace=wrap;html=1;" vertex="1" parent="1">
          <mxGeometry x="1642" y="615" width="80" height="80" as="geometry" />
        </mxCell>
        <mxCell id="DT7VOPM8TI2RJhQIQWmK-21" value="" style="edgeStyle=orthogonalEdgeStyle;rounded=0;orthogonalLoop=1;jettySize=auto;html=1;" edge="1" parent="1" source="DT7VOPM8TI2RJhQIQWmK-18" target="DT7VOPM8TI2RJhQIQWmK-20">
          <mxGeometry relative="1" as="geometry" />
        </mxCell>
        <mxCell id="DT7VOPM8TI2RJhQIQWmK-48" value="True" style="edgeLabel;html=1;align=center;verticalAlign=middle;resizable=0;points=[];" vertex="1" connectable="0" parent="DT7VOPM8TI2RJhQIQWmK-21">
          <mxGeometry x="-0.2127" y="-2" relative="1" as="geometry">
            <mxPoint x="1" as="offset" />
          </mxGeometry>
        </mxCell>
        <mxCell id="DT7VOPM8TI2RJhQIQWmK-27" value="" style="edgeStyle=orthogonalEdgeStyle;rounded=0;orthogonalLoop=1;jettySize=auto;html=1;" edge="1" parent="1" source="DT7VOPM8TI2RJhQIQWmK-18" target="DT7VOPM8TI2RJhQIQWmK-26">
          <mxGeometry relative="1" as="geometry" />
        </mxCell>
        <mxCell id="DT7VOPM8TI2RJhQIQWmK-49" value="False" style="edgeLabel;html=1;align=center;verticalAlign=middle;resizable=0;points=[];" vertex="1" connectable="0" parent="DT7VOPM8TI2RJhQIQWmK-27">
          <mxGeometry x="-0.3225" y="-1" relative="1" as="geometry">
            <mxPoint x="1" as="offset" />
          </mxGeometry>
        </mxCell>
        <mxCell id="DT7VOPM8TI2RJhQIQWmK-18" value="apakah role Admin?" style="rhombus;whiteSpace=wrap;html=1;" vertex="1" parent="1">
          <mxGeometry x="1782" y="715" width="80" height="80" as="geometry" />
        </mxCell>
        <mxCell id="DT7VOPM8TI2RJhQIQWmK-23" value="" style="edgeStyle=orthogonalEdgeStyle;rounded=0;orthogonalLoop=1;jettySize=auto;html=1;" edge="1" parent="1" source="DT7VOPM8TI2RJhQIQWmK-20" target="DT7VOPM8TI2RJhQIQWmK-22">
          <mxGeometry relative="1" as="geometry" />
        </mxCell>
        <mxCell id="DT7VOPM8TI2RJhQIQWmK-20" value="Input&lt;div&gt;Model hp yang di ubah&lt;/div&gt;" style="shape=parallelogram;perimeter=parallelogramPerimeter;whiteSpace=wrap;html=1;fixedSize=1;" vertex="1" parent="1">
          <mxGeometry x="1896" y="815" width="120" height="60" as="geometry" />
        </mxCell>
        <mxCell id="DT7VOPM8TI2RJhQIQWmK-25" value="" style="edgeStyle=orthogonalEdgeStyle;rounded=0;orthogonalLoop=1;jettySize=auto;html=1;" edge="1" parent="1" source="DT7VOPM8TI2RJhQIQWmK-22" target="DT7VOPM8TI2RJhQIQWmK-24">
          <mxGeometry relative="1" as="geometry" />
        </mxCell>
        <mxCell id="DT7VOPM8TI2RJhQIQWmK-22" value="Input&lt;div&gt;Harga Baru,Stok Baru&lt;/div&gt;" style="shape=parallelogram;perimeter=parallelogramPerimeter;whiteSpace=wrap;html=1;fixedSize=1;" vertex="1" parent="1">
          <mxGeometry x="1896" y="925" width="120" height="60" as="geometry" />
        </mxCell>
        <mxCell id="DT7VOPM8TI2RJhQIQWmK-69" style="edgeStyle=orthogonalEdgeStyle;rounded=0;orthogonalLoop=1;jettySize=auto;html=1;exitX=0.5;exitY=1;exitDx=0;exitDy=0;" edge="1" parent="1" source="DT7VOPM8TI2RJhQIQWmK-24">
          <mxGeometry relative="1" as="geometry">
            <mxPoint x="1956" y="1486.7776692708333" as="targetPoint" />
          </mxGeometry>
        </mxCell>
        <mxCell id="DT7VOPM8TI2RJhQIQWmK-24" value="Output&lt;div&gt;Berhasil&lt;/div&gt;&lt;div&gt;Mengubah Hp&lt;/div&gt;" style="shape=parallelogram;perimeter=parallelogramPerimeter;whiteSpace=wrap;html=1;fixedSize=1;" vertex="1" parent="1">
          <mxGeometry x="1896" y="1020" width="120" height="60" as="geometry" />
        </mxCell>
        <mxCell id="DT7VOPM8TI2RJhQIQWmK-71" style="edgeStyle=orthogonalEdgeStyle;rounded=0;orthogonalLoop=1;jettySize=auto;html=1;exitX=0.5;exitY=1;exitDx=0;exitDy=0;" edge="1" parent="1" source="DT7VOPM8TI2RJhQIQWmK-26">
          <mxGeometry relative="1" as="geometry">
            <mxPoint x="1700" y="1490.3333333333333" as="targetPoint" />
          </mxGeometry>
        </mxCell>
        <mxCell id="DT7VOPM8TI2RJhQIQWmK-26" value="Output&lt;div&gt;Akses tidak diizinkan&lt;/div&gt;" style="shape=parallelogram;perimeter=parallelogramPerimeter;whiteSpace=wrap;html=1;fixedSize=1;" vertex="1" parent="1">
          <mxGeometry x="1632" y="815" width="120" height="60" as="geometry" />
        </mxCell>
        <mxCell id="DT7VOPM8TI2RJhQIQWmK-41" style="edgeStyle=orthogonalEdgeStyle;rounded=0;orthogonalLoop=1;jettySize=auto;html=1;exitX=1;exitY=0.5;exitDx=0;exitDy=0;" edge="1" parent="1" source="DT7VOPM8TI2RJhQIQWmK-28">
          <mxGeometry relative="1" as="geometry">
            <mxPoint x="1481.9999999999995" y="865" as="targetPoint" />
          </mxGeometry>
        </mxCell>
        <mxCell id="DT7VOPM8TI2RJhQIQWmK-50" value="True" style="edgeLabel;html=1;align=center;verticalAlign=middle;resizable=0;points=[];" vertex="1" connectable="0" parent="DT7VOPM8TI2RJhQIQWmK-41">
          <mxGeometry x="-0.5376" y="4" relative="1" as="geometry">
            <mxPoint as="offset" />
          </mxGeometry>
        </mxCell>
        <mxCell id="DT7VOPM8TI2RJhQIQWmK-54" value="" style="edgeStyle=orthogonalEdgeStyle;rounded=0;orthogonalLoop=1;jettySize=auto;html=1;" edge="1" parent="1" source="DT7VOPM8TI2RJhQIQWmK-28" target="DT7VOPM8TI2RJhQIQWmK-53">
          <mxGeometry relative="1" as="geometry" />
        </mxCell>
        <mxCell id="DT7VOPM8TI2RJhQIQWmK-55" value="False" style="edgeLabel;html=1;align=center;verticalAlign=middle;resizable=0;points=[];" vertex="1" connectable="0" parent="DT7VOPM8TI2RJhQIQWmK-54">
          <mxGeometry x="-0.2017" y="-1" relative="1" as="geometry">
            <mxPoint as="offset" />
          </mxGeometry>
        </mxCell>
        <mxCell id="DT7VOPM8TI2RJhQIQWmK-28" value="Pilihan 4?" style="rhombus;whiteSpace=wrap;html=1;" vertex="1" parent="1">
          <mxGeometry x="1310" y="725" width="80" height="80" as="geometry" />
        </mxCell>
        <mxCell id="DT7VOPM8TI2RJhQIQWmK-31" value="Input&lt;div&gt;Pilihan&lt;/div&gt;" style="shape=parallelogram;perimeter=parallelogramPerimeter;whiteSpace=wrap;html=1;fixedSize=1;" vertex="1" parent="1">
          <mxGeometry x="1400" y="257.5" width="120" height="60" as="geometry" />
        </mxCell>
        <mxCell id="DT7VOPM8TI2RJhQIQWmK-32" value="" style="edgeStyle=orthogonalEdgeStyle;rounded=0;orthogonalLoop=1;jettySize=auto;html=1;" edge="1" parent="1" source="DT7VOPM8TI2RJhQIQWmK-34" target="DT7VOPM8TI2RJhQIQWmK-36">
          <mxGeometry relative="1" as="geometry" />
        </mxCell>
        <mxCell id="DT7VOPM8TI2RJhQIQWmK-51" value="True" style="edgeLabel;html=1;align=center;verticalAlign=middle;resizable=0;points=[];" vertex="1" connectable="0" parent="DT7VOPM8TI2RJhQIQWmK-32">
          <mxGeometry x="-0.4765" y="-1" relative="1" as="geometry">
            <mxPoint as="offset" />
          </mxGeometry>
        </mxCell>
        <mxCell id="DT7VOPM8TI2RJhQIQWmK-33" value="" style="edgeStyle=orthogonalEdgeStyle;rounded=0;orthogonalLoop=1;jettySize=auto;html=1;" edge="1" parent="1" source="DT7VOPM8TI2RJhQIQWmK-34" target="DT7VOPM8TI2RJhQIQWmK-40">
          <mxGeometry relative="1" as="geometry" />
        </mxCell>
        <mxCell id="DT7VOPM8TI2RJhQIQWmK-52" value="False" style="edgeLabel;html=1;align=center;verticalAlign=middle;resizable=0;points=[];" vertex="1" connectable="0" parent="DT7VOPM8TI2RJhQIQWmK-33">
          <mxGeometry x="-0.3356" y="1" relative="1" as="geometry">
            <mxPoint as="offset" />
          </mxGeometry>
        </mxCell>
        <mxCell id="DT7VOPM8TI2RJhQIQWmK-34" value="apakah role Admin?" style="rhombus;whiteSpace=wrap;html=1;" vertex="1" parent="1">
          <mxGeometry x="1440" y="867.5" width="80" height="80" as="geometry" />
        </mxCell>
        <mxCell id="DT7VOPM8TI2RJhQIQWmK-35" value="" style="edgeStyle=orthogonalEdgeStyle;rounded=0;orthogonalLoop=1;jettySize=auto;html=1;" edge="1" parent="1" source="DT7VOPM8TI2RJhQIQWmK-36">
          <mxGeometry relative="1" as="geometry">
            <mxPoint x="1614" y="1077.5" as="targetPoint" />
          </mxGeometry>
        </mxCell>
        <mxCell id="DT7VOPM8TI2RJhQIQWmK-36" value="Input&lt;div&gt;Model hp yang di hapus&lt;/div&gt;" style="shape=parallelogram;perimeter=parallelogramPerimeter;whiteSpace=wrap;html=1;fixedSize=1;" vertex="1" parent="1">
          <mxGeometry x="1554" y="967.5" width="120" height="60" as="geometry" />
        </mxCell>
        <mxCell id="DT7VOPM8TI2RJhQIQWmK-72" style="edgeStyle=orthogonalEdgeStyle;rounded=0;orthogonalLoop=1;jettySize=auto;html=1;exitX=0.5;exitY=1;exitDx=0;exitDy=0;" edge="1" parent="1" source="DT7VOPM8TI2RJhQIQWmK-39">
          <mxGeometry relative="1" as="geometry">
            <mxPoint x="1614.666666666667" y="1485" as="targetPoint" />
          </mxGeometry>
        </mxCell>
        <mxCell id="DT7VOPM8TI2RJhQIQWmK-39" value="Output&lt;div&gt;Berhasil&lt;/div&gt;&lt;div&gt;Menghapus Hp&lt;/div&gt;" style="shape=parallelogram;perimeter=parallelogramPerimeter;whiteSpace=wrap;html=1;fixedSize=1;" vertex="1" parent="1">
          <mxGeometry x="1554" y="1081" width="120" height="65" as="geometry" />
        </mxCell>
        <mxCell id="DT7VOPM8TI2RJhQIQWmK-73" style="edgeStyle=orthogonalEdgeStyle;rounded=0;orthogonalLoop=1;jettySize=auto;html=1;exitX=0.5;exitY=1;exitDx=0;exitDy=0;" edge="1" parent="1" source="DT7VOPM8TI2RJhQIQWmK-40">
          <mxGeometry relative="1" as="geometry">
            <mxPoint x="1350.6666666666665" y="1490.3333333333333" as="targetPoint" />
          </mxGeometry>
        </mxCell>
        <mxCell id="DT7VOPM8TI2RJhQIQWmK-40" value="Output&lt;div&gt;Akses tidak diizinkan&lt;/div&gt;" style="shape=parallelogram;perimeter=parallelogramPerimeter;whiteSpace=wrap;html=1;fixedSize=1;" vertex="1" parent="1">
          <mxGeometry x="1290" y="967.5" width="120" height="60" as="geometry" />
        </mxCell>
        <mxCell id="DT7VOPM8TI2RJhQIQWmK-57" value="" style="edgeStyle=orthogonalEdgeStyle;rounded=0;orthogonalLoop=1;jettySize=auto;html=1;" edge="1" parent="1" source="DT7VOPM8TI2RJhQIQWmK-53">
          <mxGeometry relative="1" as="geometry">
            <mxPoint x="1200.0000000000005" y="960" as="targetPoint" />
          </mxGeometry>
        </mxCell>
        <mxCell id="DT7VOPM8TI2RJhQIQWmK-61" value="" style="edgeStyle=orthogonalEdgeStyle;rounded=0;orthogonalLoop=1;jettySize=auto;html=1;" edge="1" parent="1" source="DT7VOPM8TI2RJhQIQWmK-53" target="DT7VOPM8TI2RJhQIQWmK-60">
          <mxGeometry relative="1" as="geometry" />
        </mxCell>
        <mxCell id="DT7VOPM8TI2RJhQIQWmK-53" value="Pilihan 5?" style="rhombus;whiteSpace=wrap;html=1;" vertex="1" parent="1">
          <mxGeometry x="1050" y="825" width="80" height="80" as="geometry" />
        </mxCell>
        <mxCell id="DT7VOPM8TI2RJhQIQWmK-75" style="edgeStyle=orthogonalEdgeStyle;rounded=0;orthogonalLoop=1;jettySize=auto;html=1;exitX=0.5;exitY=1;exitDx=0;exitDy=0;" edge="1" parent="1" source="DT7VOPM8TI2RJhQIQWmK-58">
          <mxGeometry relative="1" as="geometry">
            <mxPoint x="1195" y="1475" as="targetPoint" />
          </mxGeometry>
        </mxCell>
        <mxCell id="DT7VOPM8TI2RJhQIQWmK-58" value="" style="verticalLabelPosition=bottom;verticalAlign=top;html=1;shape=process;whiteSpace=wrap;rounded=1;size=0.14;arcSize=6;" vertex="1" parent="1">
          <mxGeometry x="1145" y="960" width="100" height="60" as="geometry" />
        </mxCell>
        <mxCell id="DT7VOPM8TI2RJhQIQWmK-59" value="Lihat stock Terbalik" style="text;html=1;align=center;verticalAlign=middle;resizable=0;points=[];autosize=1;strokeColor=none;fillColor=none;" vertex="1" parent="1">
          <mxGeometry x="1130" y="975" width="130" height="30" as="geometry" />
        </mxCell>
        <mxCell id="DT7VOPM8TI2RJhQIQWmK-64" style="edgeStyle=orthogonalEdgeStyle;rounded=0;orthogonalLoop=1;jettySize=auto;html=1;exitX=1;exitY=0.5;exitDx=0;exitDy=0;" edge="1" parent="1" source="DT7VOPM8TI2RJhQIQWmK-60" target="DT7VOPM8TI2RJhQIQWmK-62">
          <mxGeometry relative="1" as="geometry" />
        </mxCell>
        <mxCell id="DT7VOPM8TI2RJhQIQWmK-65" style="edgeStyle=orthogonalEdgeStyle;rounded=0;orthogonalLoop=1;jettySize=auto;html=1;exitX=0;exitY=0.5;exitDx=0;exitDy=0;" edge="1" parent="1" source="DT7VOPM8TI2RJhQIQWmK-60">
          <mxGeometry relative="1" as="geometry">
            <mxPoint x="819.9999999999995" y="1025" as="targetPoint" />
          </mxGeometry>
        </mxCell>
        <mxCell id="DT7VOPM8TI2RJhQIQWmK-60" value="Pilihan 6?" style="rhombus;whiteSpace=wrap;html=1;" vertex="1" parent="1">
          <mxGeometry x="880" y="925" width="80" height="80" as="geometry" />
        </mxCell>
        <mxCell id="DT7VOPM8TI2RJhQIQWmK-77" style="edgeStyle=orthogonalEdgeStyle;rounded=0;orthogonalLoop=1;jettySize=auto;html=1;exitX=0.5;exitY=1;exitDx=0;exitDy=0;" edge="1" parent="1" source="DT7VOPM8TI2RJhQIQWmK-62">
          <mxGeometry relative="1" as="geometry">
            <mxPoint x="1030" y="1475.0000000000005" as="targetPoint" />
          </mxGeometry>
        </mxCell>
        <mxCell id="DT7VOPM8TI2RJhQIQWmK-62" value="" style="verticalLabelPosition=bottom;verticalAlign=top;html=1;shape=process;whiteSpace=wrap;rounded=1;size=0.14;arcSize=6;" vertex="1" parent="1">
          <mxGeometry x="980" y="1055" width="100" height="60" as="geometry" />
        </mxCell>
        <mxCell id="DT7VOPM8TI2RJhQIQWmK-63" value="Keluar" style="text;html=1;align=center;verticalAlign=middle;resizable=0;points=[];autosize=1;strokeColor=none;fillColor=none;" vertex="1" parent="1">
          <mxGeometry x="1000" y="1070" width="60" height="30" as="geometry" />
        </mxCell>
        <mxCell id="DT7VOPM8TI2RJhQIQWmK-78" style="edgeStyle=orthogonalEdgeStyle;rounded=0;orthogonalLoop=1;jettySize=auto;html=1;exitX=0.5;exitY=1;exitDx=0;exitDy=0;" edge="1" parent="1" source="DT7VOPM8TI2RJhQIQWmK-66">
          <mxGeometry relative="1" as="geometry">
            <mxPoint x="840" y="1488.3334350585942" as="targetPoint" />
            <Array as="points">
              <mxPoint x="830" y="1488" />
            </Array>
          </mxGeometry>
        </mxCell>
        <mxCell id="DT7VOPM8TI2RJhQIQWmK-66" value="Output&lt;div&gt;Pilihan tidak Valid&lt;/div&gt;" style="shape=parallelogram;perimeter=parallelogramPerimeter;whiteSpace=wrap;html=1;fixedSize=1;" vertex="1" parent="1">
          <mxGeometry x="770" y="1027.5" width="120" height="60" as="geometry" />
        </mxCell>
        <mxCell id="DT7VOPM8TI2RJhQIQWmK-79" value="End" style="ellipse;whiteSpace=wrap;html=1;" vertex="1" parent="1">
          <mxGeometry x="340" y="1780" width="120" height="80" as="geometry" />
        </mxCell>
      </root>
    </mxGraphModel>
  </diagram>
  <diagram id="Q-MEbGhtKHsjoRxa2pnn" name="Tambah HP">
    <mxGraphModel dx="1007" dy="1931" grid="1" gridSize="10" guides="1" tooltips="1" connect="1" arrows="1" fold="1" page="1" pageScale="1" pageWidth="827" pageHeight="1169" math="0" shadow="0">
      <root>
        <mxCell id="0" />
        <mxCell id="1" parent="0" />
        <mxCell id="ZRHZfh0Towtt3H2y7S1u-3" value="" style="edgeStyle=orthogonalEdgeStyle;rounded=0;orthogonalLoop=1;jettySize=auto;html=1;" edge="1" parent="1" source="ZRHZfh0Towtt3H2y7S1u-1" target="ZRHZfh0Towtt3H2y7S1u-2">
          <mxGeometry relative="1" as="geometry" />
        </mxCell>
        <mxCell id="ZRHZfh0Towtt3H2y7S1u-1" value="Tambah Hp" style="strokeWidth=2;html=1;shape=mxgraph.flowchart.start_1;whiteSpace=wrap;" vertex="1" parent="1">
          <mxGeometry x="260" y="-550" width="100" height="60" as="geometry" />
        </mxCell>
        <mxCell id="ZRHZfh0Towtt3H2y7S1u-5" value="" style="edgeStyle=orthogonalEdgeStyle;rounded=0;orthogonalLoop=1;jettySize=auto;html=1;" edge="1" parent="1" source="ZRHZfh0Towtt3H2y7S1u-2" target="ZRHZfh0Towtt3H2y7S1u-4">
          <mxGeometry relative="1" as="geometry" />
        </mxCell>
        <mxCell id="ZRHZfh0Towtt3H2y7S1u-2" value="Input&lt;div&gt;Merk,harga,Stock,&lt;/div&gt;&lt;div&gt;model&lt;/div&gt;" style="shape=parallelogram;perimeter=parallelogramPerimeter;whiteSpace=wrap;html=1;fixedSize=1;strokeWidth=2;" vertex="1" parent="1">
          <mxGeometry x="250" y="-410" width="120" height="60" as="geometry" />
        </mxCell>
        <mxCell id="ZRHZfh0Towtt3H2y7S1u-9" value="" style="edgeStyle=orthogonalEdgeStyle;rounded=0;orthogonalLoop=1;jettySize=auto;html=1;entryX=0.5;entryY=0;entryDx=0;entryDy=0;exitX=1;exitY=0.5;exitDx=0;exitDy=0;" edge="1" parent="1" source="ZRHZfh0Towtt3H2y7S1u-4" target="ZRHZfh0Towtt3H2y7S1u-8">
          <mxGeometry relative="1" as="geometry">
            <mxPoint x="390" y="-240" as="sourcePoint" />
          </mxGeometry>
        </mxCell>
        <mxCell id="ZRHZfh0Towtt3H2y7S1u-10" value="True" style="edgeLabel;html=1;align=center;verticalAlign=middle;resizable=0;points=[];" vertex="1" connectable="0" parent="ZRHZfh0Towtt3H2y7S1u-9">
          <mxGeometry x="-0.1649" y="-3" relative="1" as="geometry">
            <mxPoint as="offset" />
          </mxGeometry>
        </mxCell>
        <mxCell id="ZRHZfh0Towtt3H2y7S1u-12" value="" style="edgeStyle=orthogonalEdgeStyle;rounded=0;orthogonalLoop=1;jettySize=auto;html=1;entryX=0.5;entryY=0;entryDx=0;entryDy=0;exitX=0;exitY=0.5;exitDx=0;exitDy=0;" edge="1" parent="1" source="ZRHZfh0Towtt3H2y7S1u-4" target="ZRHZfh0Towtt3H2y7S1u-11">
          <mxGeometry relative="1" as="geometry">
            <mxPoint x="240" y="-240" as="sourcePoint" />
          </mxGeometry>
        </mxCell>
        <mxCell id="ZRHZfh0Towtt3H2y7S1u-13" value="False" style="edgeLabel;html=1;align=center;verticalAlign=middle;resizable=0;points=[];" vertex="1" connectable="0" parent="ZRHZfh0Towtt3H2y7S1u-12">
          <mxGeometry x="-0.3763" y="3" relative="1" as="geometry">
            <mxPoint as="offset" />
          </mxGeometry>
        </mxCell>
        <mxCell id="ZRHZfh0Towtt3H2y7S1u-4" value="Cek apakah Model sudah ada" style="rhombus;whiteSpace=wrap;html=1;strokeWidth=2;" vertex="1" parent="1">
          <mxGeometry x="270" y="-280" width="80" height="80" as="geometry" />
        </mxCell>
        <mxCell id="ZRHZfh0Towtt3H2y7S1u-8" value="Return; Output&lt;div&gt;Model sudah ada&lt;/div&gt;" style="shape=parallelogram;perimeter=parallelogramPerimeter;whiteSpace=wrap;html=1;fixedSize=1;strokeWidth=2;" vertex="1" parent="1">
          <mxGeometry x="454" y="-210" width="120" height="60" as="geometry" />
        </mxCell>
        <mxCell id="ZRHZfh0Towtt3H2y7S1u-15" value="" style="edgeStyle=orthogonalEdgeStyle;rounded=0;orthogonalLoop=1;jettySize=auto;html=1;" edge="1" parent="1" source="ZRHZfh0Towtt3H2y7S1u-11" target="ZRHZfh0Towtt3H2y7S1u-14">
          <mxGeometry relative="1" as="geometry" />
        </mxCell>
        <mxCell id="ZRHZfh0Towtt3H2y7S1u-11" value="Tambahkan Kedaftar Hp" style="rounded=1;whiteSpace=wrap;html=1;strokeWidth=2;" vertex="1" parent="1">
          <mxGeometry x="100" y="-200" width="110" height="60" as="geometry" />
        </mxCell>
        <mxCell id="ZRHZfh0Towtt3H2y7S1u-16" style="edgeStyle=orthogonalEdgeStyle;rounded=0;orthogonalLoop=1;jettySize=auto;html=1;exitX=0.5;exitY=1;exitDx=0;exitDy=0;" edge="1" parent="1" source="ZRHZfh0Towtt3H2y7S1u-14" target="ZRHZfh0Towtt3H2y7S1u-17">
          <mxGeometry relative="1" as="geometry">
            <mxPoint x="360" y="100" as="targetPoint" />
          </mxGeometry>
        </mxCell>
        <mxCell id="ZRHZfh0Towtt3H2y7S1u-14" value="Return : Output&lt;div&gt;Merk model Berhasil ditambahkan ke stok&lt;/div&gt;" style="shape=parallelogram;perimeter=parallelogramPerimeter;whiteSpace=wrap;html=1;fixedSize=1;rounded=1;strokeWidth=2;" vertex="1" parent="1">
          <mxGeometry x="95" y="-90" width="120" height="60" as="geometry" />
        </mxCell>
        <mxCell id="ZRHZfh0Towtt3H2y7S1u-17" value="End" style="strokeWidth=2;html=1;shape=mxgraph.flowchart.start_1;whiteSpace=wrap;" vertex="1" parent="1">
          <mxGeometry x="310" y="70" width="100" height="60" as="geometry" />
        </mxCell>
        <mxCell id="ZRHZfh0Towtt3H2y7S1u-18" style="edgeStyle=orthogonalEdgeStyle;rounded=0;orthogonalLoop=1;jettySize=auto;html=1;exitX=0.5;exitY=1;exitDx=0;exitDy=0;entryX=0.5;entryY=0;entryDx=0;entryDy=0;entryPerimeter=0;" edge="1" parent="1" source="ZRHZfh0Towtt3H2y7S1u-8" target="ZRHZfh0Towtt3H2y7S1u-17">
          <mxGeometry relative="1" as="geometry">
            <Array as="points">
              <mxPoint x="514" y="20" />
              <mxPoint x="360" y="20" />
            </Array>
          </mxGeometry>
        </mxCell>
      </root>
    </mxGraphModel>
  </diagram>
  <diagram id="JQZPhhKfbhG4DSngCeeS" name="Lihat Stock Terbalik">
    <mxGraphModel dx="1477" dy="654" grid="1" gridSize="10" guides="1" tooltips="1" connect="1" arrows="1" fold="1" page="1" pageScale="1" pageWidth="827" pageHeight="1169" math="0" shadow="0">
      <root>
        <mxCell id="0" />
        <mxCell id="1" parent="0" />
        <mxCell id="gSUfbmxhGePZ1jPHJCGS-3" value="" style="edgeStyle=orthogonalEdgeStyle;rounded=0;orthogonalLoop=1;jettySize=auto;html=1;" edge="1" parent="1" source="gSUfbmxhGePZ1jPHJCGS-1" target="gSUfbmxhGePZ1jPHJCGS-2">
          <mxGeometry relative="1" as="geometry" />
        </mxCell>
        <mxCell id="gSUfbmxhGePZ1jPHJCGS-1" value="Lihat Stock Terbalik" style="strokeWidth=2;html=1;shape=mxgraph.flowchart.start_1;whiteSpace=wrap;" vertex="1" parent="1">
          <mxGeometry x="350" y="80" width="100" height="60" as="geometry" />
        </mxCell>
        <mxCell id="gSUfbmxhGePZ1jPHJCGS-5" value="" style="edgeStyle=orthogonalEdgeStyle;rounded=0;orthogonalLoop=1;jettySize=auto;html=1;" edge="1" parent="1" source="gSUfbmxhGePZ1jPHJCGS-2" target="gSUfbmxhGePZ1jPHJCGS-4">
          <mxGeometry relative="1" as="geometry" />
        </mxCell>
        <mxCell id="gSUfbmxhGePZ1jPHJCGS-6" value="True" style="edgeLabel;html=1;align=center;verticalAlign=middle;resizable=0;points=[];" vertex="1" connectable="0" parent="gSUfbmxhGePZ1jPHJCGS-5">
          <mxGeometry x="-0.1719" y="-1" relative="1" as="geometry">
            <mxPoint as="offset" />
          </mxGeometry>
        </mxCell>
        <mxCell id="gSUfbmxhGePZ1jPHJCGS-8" value="" style="edgeStyle=orthogonalEdgeStyle;rounded=0;orthogonalLoop=1;jettySize=auto;html=1;" edge="1" parent="1" source="gSUfbmxhGePZ1jPHJCGS-2" target="gSUfbmxhGePZ1jPHJCGS-7">
          <mxGeometry relative="1" as="geometry" />
        </mxCell>
        <mxCell id="gSUfbmxhGePZ1jPHJCGS-2" value="Daftar Hp Kosong" style="rhombus;whiteSpace=wrap;html=1;strokeWidth=2;" vertex="1" parent="1">
          <mxGeometry x="360" y="210" width="80" height="80" as="geometry" />
        </mxCell>
        <mxCell id="gSUfbmxhGePZ1jPHJCGS-19" style="edgeStyle=orthogonalEdgeStyle;rounded=0;orthogonalLoop=1;jettySize=auto;html=1;exitX=0.5;exitY=1;exitDx=0;exitDy=0;entryX=0.5;entryY=0;entryDx=0;entryDy=0;entryPerimeter=0;" edge="1" parent="1" source="gSUfbmxhGePZ1jPHJCGS-4" target="gSUfbmxhGePZ1jPHJCGS-16">
          <mxGeometry relative="1" as="geometry">
            <mxPoint x="400" y="663.75" as="targetPoint" />
            <Array as="points">
              <mxPoint x="580" y="620" />
              <mxPoint x="400" y="620" />
            </Array>
          </mxGeometry>
        </mxCell>
        <mxCell id="gSUfbmxhGePZ1jPHJCGS-4" value="Return : Output&lt;div&gt;Belum ada stock Hp&lt;/div&gt;" style="shape=parallelogram;perimeter=parallelogramPerimeter;whiteSpace=wrap;html=1;fixedSize=1;strokeWidth=2;" vertex="1" parent="1">
          <mxGeometry x="520" y="300" width="120" height="60" as="geometry" />
        </mxCell>
        <mxCell id="gSUfbmxhGePZ1jPHJCGS-10" value="" style="edgeStyle=orthogonalEdgeStyle;rounded=0;orthogonalLoop=1;jettySize=auto;html=1;" edge="1" parent="1" source="gSUfbmxhGePZ1jPHJCGS-7" target="gSUfbmxhGePZ1jPHJCGS-9">
          <mxGeometry relative="1" as="geometry" />
        </mxCell>
        <mxCell id="gSUfbmxhGePZ1jPHJCGS-11" value="True" style="edgeLabel;html=1;align=center;verticalAlign=middle;resizable=0;points=[];" vertex="1" connectable="0" parent="gSUfbmxhGePZ1jPHJCGS-10">
          <mxGeometry x="-0.3216" y="-3" relative="1" as="geometry">
            <mxPoint as="offset" />
          </mxGeometry>
        </mxCell>
        <mxCell id="gSUfbmxhGePZ1jPHJCGS-13" value="" style="edgeStyle=orthogonalEdgeStyle;rounded=0;orthogonalLoop=1;jettySize=auto;html=1;" edge="1" parent="1" source="gSUfbmxhGePZ1jPHJCGS-7" target="gSUfbmxhGePZ1jPHJCGS-12">
          <mxGeometry relative="1" as="geometry" />
        </mxCell>
        <mxCell id="gSUfbmxhGePZ1jPHJCGS-7" value="Index &amp;lt; 0" style="rhombus;whiteSpace=wrap;html=1;strokeWidth=2;" vertex="1" parent="1">
          <mxGeometry x="190" y="300" width="80" height="80" as="geometry" />
        </mxCell>
        <mxCell id="gSUfbmxhGePZ1jPHJCGS-18" style="edgeStyle=orthogonalEdgeStyle;rounded=0;orthogonalLoop=1;jettySize=auto;html=1;exitX=0.5;exitY=1;exitDx=0;exitDy=0;" edge="1" parent="1" source="gSUfbmxhGePZ1jPHJCGS-9">
          <mxGeometry relative="1" as="geometry">
            <mxPoint x="400" y="660" as="targetPoint" />
            <Array as="points">
              <mxPoint x="400" y="450" />
            </Array>
          </mxGeometry>
        </mxCell>
        <mxCell id="gSUfbmxhGePZ1jPHJCGS-9" value="Returm : Output&lt;div&gt;&quot; &quot;&lt;/div&gt;" style="shape=parallelogram;perimeter=parallelogramPerimeter;whiteSpace=wrap;html=1;fixedSize=1;strokeWidth=2;" vertex="1" parent="1">
          <mxGeometry x="330" y="390" width="120" height="60" as="geometry" />
        </mxCell>
        <mxCell id="gSUfbmxhGePZ1jPHJCGS-15" value="" style="edgeStyle=orthogonalEdgeStyle;rounded=0;orthogonalLoop=1;jettySize=auto;html=1;" edge="1" parent="1" source="gSUfbmxhGePZ1jPHJCGS-12" target="gSUfbmxhGePZ1jPHJCGS-14">
          <mxGeometry relative="1" as="geometry" />
        </mxCell>
        <mxCell id="gSUfbmxhGePZ1jPHJCGS-12" value="Ambil data hp dari model" style="whiteSpace=wrap;html=1;strokeWidth=2;" vertex="1" parent="1">
          <mxGeometry x="20" y="390" width="120" height="60" as="geometry" />
        </mxCell>
        <mxCell id="gSUfbmxhGePZ1jPHJCGS-17" style="edgeStyle=orthogonalEdgeStyle;rounded=0;orthogonalLoop=1;jettySize=auto;html=1;exitX=0.5;exitY=1;exitDx=0;exitDy=0;" edge="1" parent="1" source="gSUfbmxhGePZ1jPHJCGS-14" target="gSUfbmxhGePZ1jPHJCGS-16">
          <mxGeometry relative="1" as="geometry" />
        </mxCell>
        <mxCell id="gSUfbmxhGePZ1jPHJCGS-14" value="Buat string hasil" style="whiteSpace=wrap;html=1;strokeWidth=2;" vertex="1" parent="1">
          <mxGeometry x="20" y="520" width="120" height="60" as="geometry" />
        </mxCell>
        <mxCell id="gSUfbmxhGePZ1jPHJCGS-16" value="End" style="strokeWidth=2;html=1;shape=mxgraph.flowchart.start_1;whiteSpace=wrap;" vertex="1" parent="1">
          <mxGeometry x="350" y="660" width="100" height="60" as="geometry" />
        </mxCell>
      </root>
    </mxGraphModel>
  </diagram>
  <diagram id="s7HjM86K56kNglVl-mBz" name="Lihat Stock">
    <mxGraphModel dx="940" dy="416" grid="1" gridSize="10" guides="1" tooltips="1" connect="1" arrows="1" fold="1" page="1" pageScale="1" pageWidth="827" pageHeight="1169" math="0" shadow="0">
      <root>
        <mxCell id="0" />
        <mxCell id="1" parent="0" />
        <mxCell id="bJbAvokUagh7K5hVHVUh-3" value="" style="edgeStyle=orthogonalEdgeStyle;rounded=0;orthogonalLoop=1;jettySize=auto;html=1;" edge="1" parent="1" source="bJbAvokUagh7K5hVHVUh-1" target="bJbAvokUagh7K5hVHVUh-2">
          <mxGeometry relative="1" as="geometry" />
        </mxCell>
        <mxCell id="bJbAvokUagh7K5hVHVUh-1" value="Lihat Stock" style="strokeWidth=2;html=1;shape=mxgraph.flowchart.start_1;whiteSpace=wrap;" vertex="1" parent="1">
          <mxGeometry x="380" y="30" width="100" height="60" as="geometry" />
        </mxCell>
        <mxCell id="bJbAvokUagh7K5hVHVUh-5" value="" style="edgeStyle=orthogonalEdgeStyle;rounded=0;orthogonalLoop=1;jettySize=auto;html=1;" edge="1" parent="1" source="bJbAvokUagh7K5hVHVUh-2" target="bJbAvokUagh7K5hVHVUh-4">
          <mxGeometry relative="1" as="geometry" />
        </mxCell>
        <mxCell id="bJbAvokUagh7K5hVHVUh-6" value="True" style="edgeLabel;html=1;align=center;verticalAlign=middle;resizable=0;points=[];" vertex="1" connectable="0" parent="bJbAvokUagh7K5hVHVUh-5">
          <mxGeometry x="-0.2704" y="-2" relative="1" as="geometry">
            <mxPoint as="offset" />
          </mxGeometry>
        </mxCell>
        <mxCell id="bJbAvokUagh7K5hVHVUh-8" value="" style="edgeStyle=orthogonalEdgeStyle;rounded=0;orthogonalLoop=1;jettySize=auto;html=1;" edge="1" parent="1" source="bJbAvokUagh7K5hVHVUh-2" target="bJbAvokUagh7K5hVHVUh-7">
          <mxGeometry relative="1" as="geometry" />
        </mxCell>
        <mxCell id="bJbAvokUagh7K5hVHVUh-2" value="Daftar Hp Kosong" style="rhombus;whiteSpace=wrap;html=1;strokeWidth=2;" vertex="1" parent="1">
          <mxGeometry x="390" y="160" width="80" height="80" as="geometry" />
        </mxCell>
        <mxCell id="bJbAvokUagh7K5hVHVUh-16" style="edgeStyle=orthogonalEdgeStyle;rounded=0;orthogonalLoop=1;jettySize=auto;html=1;exitX=0.5;exitY=1;exitDx=0;exitDy=0;" edge="1" parent="1">
          <mxGeometry relative="1" as="geometry">
            <mxPoint x="420" y="646" as="targetPoint" />
            <mxPoint x="600" y="306" as="sourcePoint" />
            <Array as="points">
              <mxPoint x="600" y="596" />
              <mxPoint x="421" y="596" />
              <mxPoint x="421" y="650" />
              <mxPoint x="420" y="650" />
            </Array>
          </mxGeometry>
        </mxCell>
        <mxCell id="bJbAvokUagh7K5hVHVUh-4" value="Return : Output&lt;div&gt;Belum ada Stock HP&lt;/div&gt;" style="shape=parallelogram;perimeter=parallelogramPerimeter;whiteSpace=wrap;html=1;fixedSize=1;strokeWidth=2;" vertex="1" parent="1">
          <mxGeometry x="540" y="250" width="120" height="60" as="geometry" />
        </mxCell>
        <mxCell id="bJbAvokUagh7K5hVHVUh-10" value="" style="edgeStyle=orthogonalEdgeStyle;rounded=0;orthogonalLoop=1;jettySize=auto;html=1;" edge="1" parent="1" source="bJbAvokUagh7K5hVHVUh-7" target="bJbAvokUagh7K5hVHVUh-9">
          <mxGeometry relative="1" as="geometry" />
        </mxCell>
        <mxCell id="bJbAvokUagh7K5hVHVUh-7" value="Buat String hasil :&lt;div&gt;Daftar Hp yang tersedia&lt;/div&gt;" style="whiteSpace=wrap;html=1;strokeWidth=2;" vertex="1" parent="1">
          <mxGeometry x="210" y="250" width="120" height="50" as="geometry" />
        </mxCell>
        <mxCell id="bJbAvokUagh7K5hVHVUh-12" value="" style="edgeStyle=orthogonalEdgeStyle;rounded=0;orthogonalLoop=1;jettySize=auto;html=1;" edge="1" parent="1" source="bJbAvokUagh7K5hVHVUh-9">
          <mxGeometry relative="1" as="geometry">
            <mxPoint x="270" y="480" as="targetPoint" />
          </mxGeometry>
        </mxCell>
        <mxCell id="bJbAvokUagh7K5hVHVUh-9" value="Tambahkan model,Merk,harga,dan stock" style="whiteSpace=wrap;html=1;strokeWidth=2;" vertex="1" parent="1">
          <mxGeometry x="210" y="340" width="120" height="60" as="geometry" />
        </mxCell>
        <mxCell id="bJbAvokUagh7K5hVHVUh-13" value="Return&lt;div&gt;Hasil&lt;/div&gt;" style="whiteSpace=wrap;html=1;" vertex="1" parent="1">
          <mxGeometry x="210" y="480" width="120" height="60" as="geometry" />
        </mxCell>
        <mxCell id="bJbAvokUagh7K5hVHVUh-14" value="End" style="strokeWidth=2;html=1;shape=mxgraph.flowchart.start_1;whiteSpace=wrap;" vertex="1" parent="1">
          <mxGeometry x="370" y="650" width="100" height="60" as="geometry" />
        </mxCell>
        <mxCell id="bJbAvokUagh7K5hVHVUh-15" style="edgeStyle=orthogonalEdgeStyle;rounded=0;orthogonalLoop=1;jettySize=auto;html=1;exitX=0.5;exitY=1;exitDx=0;exitDy=0;entryX=0.5;entryY=0;entryDx=0;entryDy=0;entryPerimeter=0;" edge="1" parent="1" source="bJbAvokUagh7K5hVHVUh-13" target="bJbAvokUagh7K5hVHVUh-14">
          <mxGeometry relative="1" as="geometry" />
        </mxCell>
      </root>
    </mxGraphModel>
  </diagram>
  <diagram id="qs_GH8rBL3ckFK3tm54n" name="Ubah data">
    <mxGraphModel dx="1216" dy="539" grid="1" gridSize="10" guides="1" tooltips="1" connect="1" arrows="1" fold="1" page="1" pageScale="1" pageWidth="827" pageHeight="1169" math="0" shadow="0">
      <root>
        <mxCell id="0" />
        <mxCell id="1" parent="0" />
        <mxCell id="V9LrmKAqh7t-PEjExwI0-3" value="" style="edgeStyle=orthogonalEdgeStyle;rounded=0;orthogonalLoop=1;jettySize=auto;html=1;" edge="1" parent="1" source="V9LrmKAqh7t-PEjExwI0-1" target="V9LrmKAqh7t-PEjExwI0-2">
          <mxGeometry relative="1" as="geometry" />
        </mxCell>
        <mxCell id="V9LrmKAqh7t-PEjExwI0-1" value="Ubah data" style="strokeWidth=2;html=1;shape=mxgraph.flowchart.start_1;whiteSpace=wrap;" vertex="1" parent="1">
          <mxGeometry x="360" y="210" width="100" height="60" as="geometry" />
        </mxCell>
        <mxCell id="V9LrmKAqh7t-PEjExwI0-6" value="" style="edgeStyle=orthogonalEdgeStyle;rounded=0;orthogonalLoop=1;jettySize=auto;html=1;entryX=0.5;entryY=0;entryDx=0;entryDy=0;" edge="1" parent="1" source="V9LrmKAqh7t-PEjExwI0-2" target="V9LrmKAqh7t-PEjExwI0-5">
          <mxGeometry relative="1" as="geometry" />
        </mxCell>
        <mxCell id="V9LrmKAqh7t-PEjExwI0-12" value="True" style="edgeLabel;html=1;align=center;verticalAlign=middle;resizable=0;points=[];" vertex="1" connectable="0" parent="V9LrmKAqh7t-PEjExwI0-6">
          <mxGeometry x="-0.237" y="4" relative="1" as="geometry">
            <mxPoint as="offset" />
          </mxGeometry>
        </mxCell>
        <mxCell id="V9LrmKAqh7t-PEjExwI0-10" value="" style="edgeStyle=orthogonalEdgeStyle;rounded=0;orthogonalLoop=1;jettySize=auto;html=1;" edge="1" parent="1" source="V9LrmKAqh7t-PEjExwI0-2" target="V9LrmKAqh7t-PEjExwI0-9">
          <mxGeometry relative="1" as="geometry" />
        </mxCell>
        <mxCell id="V9LrmKAqh7t-PEjExwI0-13" value="False" style="edgeLabel;html=1;align=center;verticalAlign=middle;resizable=0;points=[];" vertex="1" connectable="0" parent="V9LrmKAqh7t-PEjExwI0-10">
          <mxGeometry x="-0.3137" y="-1" relative="1" as="geometry">
            <mxPoint as="offset" />
          </mxGeometry>
        </mxCell>
        <mxCell id="V9LrmKAqh7t-PEjExwI0-2" value="Model ada di daftar hp?" style="rhombus;whiteSpace=wrap;html=1;strokeWidth=2;" vertex="1" parent="1">
          <mxGeometry x="370" y="340" width="80" height="80" as="geometry" />
        </mxCell>
        <mxCell id="V9LrmKAqh7t-PEjExwI0-8" value="" style="edgeStyle=orthogonalEdgeStyle;rounded=0;orthogonalLoop=1;jettySize=auto;html=1;" edge="1" parent="1" source="V9LrmKAqh7t-PEjExwI0-5">
          <mxGeometry relative="1" as="geometry">
            <mxPoint x="590" y="540" as="targetPoint" />
          </mxGeometry>
        </mxCell>
        <mxCell id="V9LrmKAqh7t-PEjExwI0-5" value="Ubah harga dan stock untuk model" style="whiteSpace=wrap;html=1;strokeWidth=2;" vertex="1" parent="1">
          <mxGeometry x="530" y="420" width="120" height="60" as="geometry" />
        </mxCell>
        <mxCell id="V9LrmKAqh7t-PEjExwI0-15" style="edgeStyle=orthogonalEdgeStyle;rounded=0;orthogonalLoop=1;jettySize=auto;html=1;exitX=0.5;exitY=1;exitDx=0;exitDy=0;" edge="1" parent="1" source="V9LrmKAqh7t-PEjExwI0-9" target="V9LrmKAqh7t-PEjExwI0-14">
          <mxGeometry relative="1" as="geometry">
            <Array as="points">
              <mxPoint x="250" y="640" />
              <mxPoint x="414" y="640" />
            </Array>
          </mxGeometry>
        </mxCell>
        <mxCell id="V9LrmKAqh7t-PEjExwI0-9" value="Return;Output&lt;div&gt;Model tidak Valid&lt;/div&gt;" style="shape=parallelogram;perimeter=parallelogramPerimeter;whiteSpace=wrap;html=1;fixedSize=1;strokeWidth=2;" vertex="1" parent="1">
          <mxGeometry x="190" y="430" width="120" height="60" as="geometry" />
        </mxCell>
        <mxCell id="V9LrmKAqh7t-PEjExwI0-11" value="Return;Output&amp;nbsp;&lt;div&gt;data model telah diperbarui&lt;/div&gt;" style="shape=parallelogram;perimeter=parallelogramPerimeter;whiteSpace=wrap;html=1;fixedSize=1;" vertex="1" parent="1">
          <mxGeometry x="530" y="540" width="120" height="60" as="geometry" />
        </mxCell>
        <mxCell id="V9LrmKAqh7t-PEjExwI0-14" value="End" style="strokeWidth=2;html=1;shape=mxgraph.flowchart.start_1;whiteSpace=wrap;" vertex="1" parent="1">
          <mxGeometry x="364" y="710" width="100" height="60" as="geometry" />
        </mxCell>
        <mxCell id="V9LrmKAqh7t-PEjExwI0-16" style="edgeStyle=orthogonalEdgeStyle;rounded=0;orthogonalLoop=1;jettySize=auto;html=1;exitX=0.5;exitY=1;exitDx=0;exitDy=0;entryX=0.5;entryY=0;entryDx=0;entryDy=0;entryPerimeter=0;" edge="1" parent="1" source="V9LrmKAqh7t-PEjExwI0-11" target="V9LrmKAqh7t-PEjExwI0-14">
          <mxGeometry relative="1" as="geometry">
            <Array as="points">
              <mxPoint x="590" y="640" />
              <mxPoint x="414" y="640" />
            </Array>
          </mxGeometry>
        </mxCell>
      </root>
    </mxGraphModel>
  </diagram>
  <diagram id="Mb1gnGidxbjWEoINEP1X" name="Tampilkan Menu">
    <mxGraphModel dx="1034" dy="458" grid="1" gridSize="10" guides="1" tooltips="1" connect="1" arrows="1" fold="1" page="1" pageScale="1" pageWidth="827" pageHeight="1169" math="0" shadow="0">
      <root>
        <mxCell id="0" />
        <mxCell id="1" parent="0" />
        <mxCell id="ooCWSj8ONJ1pnnQDCf5H-3" value="" style="edgeStyle=orthogonalEdgeStyle;rounded=0;orthogonalLoop=1;jettySize=auto;html=1;" edge="1" parent="1" source="ooCWSj8ONJ1pnnQDCf5H-1" target="ooCWSj8ONJ1pnnQDCf5H-2">
          <mxGeometry relative="1" as="geometry" />
        </mxCell>
        <mxCell id="ooCWSj8ONJ1pnnQDCf5H-1" value="Tampilkan Menu" style="strokeWidth=2;html=1;shape=mxgraph.flowchart.start_1;whiteSpace=wrap;" vertex="1" parent="1">
          <mxGeometry x="390" y="30" width="100" height="60" as="geometry" />
        </mxCell>
        <mxCell id="ooCWSj8ONJ1pnnQDCf5H-2" value="Output&lt;div&gt;&lt;span style=&quot;background-color: initial;&quot;&gt;Selamat datang di Toko Handphone&lt;/span&gt;&lt;div&gt;&lt;div&gt;&amp;nbsp; &amp;nbsp; 1. Masuk ke sistem&lt;/div&gt;&lt;div&gt;&amp;nbsp; &amp;nbsp; 2. Daftar pengguna baru&lt;/div&gt;&lt;div&gt;&amp;nbsp; &amp;nbsp; 3. Tutup Toko&lt;/div&gt;&lt;/div&gt;&lt;/div&gt;" style="shape=parallelogram;perimeter=parallelogramPerimeter;whiteSpace=wrap;html=1;fixedSize=1;strokeWidth=2;" vertex="1" parent="1">
          <mxGeometry x="340" y="180" width="200" height="130" as="geometry" />
        </mxCell>
        <mxCell id="ooCWSj8ONJ1pnnQDCf5H-4" value="End" style="strokeWidth=2;html=1;shape=mxgraph.flowchart.start_1;whiteSpace=wrap;" vertex="1" parent="1">
          <mxGeometry x="390" y="380" width="100" height="60" as="geometry" />
        </mxCell>
        <mxCell id="ooCWSj8ONJ1pnnQDCf5H-5" style="edgeStyle=orthogonalEdgeStyle;rounded=0;orthogonalLoop=1;jettySize=auto;html=1;exitX=0.5;exitY=1;exitDx=0;exitDy=0;entryX=0.5;entryY=0;entryDx=0;entryDy=0;entryPerimeter=0;" edge="1" parent="1" source="ooCWSj8ONJ1pnnQDCf5H-2" target="ooCWSj8ONJ1pnnQDCf5H-4">
          <mxGeometry relative="1" as="geometry" />
        </mxCell>
      </root>
    </mxGraphModel>
  </diagram>
  <diagram id="yxY2xRdffSxl99lThvrF" name="Keluar">
    <mxGraphModel dx="1034" dy="458" grid="1" gridSize="10" guides="1" tooltips="1" connect="1" arrows="1" fold="1" page="1" pageScale="1" pageWidth="827" pageHeight="1169" math="0" shadow="0">
      <root>
        <mxCell id="0" />
        <mxCell id="1" parent="0" />
        <mxCell id="T80yMrBTBE_QqvqvkHG9-3" value="" style="edgeStyle=orthogonalEdgeStyle;rounded=0;orthogonalLoop=1;jettySize=auto;html=1;" edge="1" parent="1" source="T80yMrBTBE_QqvqvkHG9-1" target="T80yMrBTBE_QqvqvkHG9-2">
          <mxGeometry relative="1" as="geometry" />
        </mxCell>
        <mxCell id="T80yMrBTBE_QqvqvkHG9-1" value="Keluar sistem" style="strokeWidth=2;html=1;shape=mxgraph.flowchart.start_1;whiteSpace=wrap;" vertex="1" parent="1">
          <mxGeometry x="364" y="20" width="100" height="60" as="geometry" />
        </mxCell>
        <mxCell id="T80yMrBTBE_QqvqvkHG9-2" value="Output&lt;div&gt;Anda Telah keluar sistem,Sampai jumpa&lt;/div&gt;" style="shape=parallelogram;perimeter=parallelogramPerimeter;whiteSpace=wrap;html=1;fixedSize=1;strokeWidth=2;" vertex="1" parent="1">
          <mxGeometry x="354" y="160" width="120" height="60" as="geometry" />
        </mxCell>
        <mxCell id="T80yMrBTBE_QqvqvkHG9-4" value="end" style="strokeWidth=2;html=1;shape=mxgraph.flowchart.start_1;whiteSpace=wrap;" vertex="1" parent="1">
          <mxGeometry x="364" y="260" width="100" height="60" as="geometry" />
        </mxCell>
        <mxCell id="T80yMrBTBE_QqvqvkHG9-5" style="edgeStyle=orthogonalEdgeStyle;rounded=0;orthogonalLoop=1;jettySize=auto;html=1;exitX=0.5;exitY=1;exitDx=0;exitDy=0;entryX=0.5;entryY=0;entryDx=0;entryDy=0;entryPerimeter=0;" edge="1" parent="1" source="T80yMrBTBE_QqvqvkHG9-2" target="T80yMrBTBE_QqvqvkHG9-4">
          <mxGeometry relative="1" as="geometry" />
        </mxCell>
      </root>
    </mxGraphModel>
  </diagram>
  <diagram id="WeZfL5LDfJG1TAkO06Rj" name="Memeriksa angka">
    <mxGraphModel dx="1293" dy="573" grid="1" gridSize="10" guides="1" tooltips="1" connect="1" arrows="1" fold="1" page="1" pageScale="1" pageWidth="827" pageHeight="1169" math="0" shadow="0">
      <root>
        <mxCell id="0" />
        <mxCell id="1" parent="0" />
        <mxCell id="KPeE3m79HYi8P1phLXay-3" value="" style="edgeStyle=orthogonalEdgeStyle;rounded=0;orthogonalLoop=1;jettySize=auto;html=1;" edge="1" parent="1" source="KPeE3m79HYi8P1phLXay-1" target="KPeE3m79HYi8P1phLXay-2">
          <mxGeometry relative="1" as="geometry" />
        </mxCell>
        <mxCell id="KPeE3m79HYi8P1phLXay-1" value="Memeriksa angka" style="strokeWidth=2;html=1;shape=mxgraph.flowchart.start_1;whiteSpace=wrap;" vertex="1" parent="1">
          <mxGeometry x="360" y="210" width="100" height="60" as="geometry" />
        </mxCell>
        <mxCell id="KPeE3m79HYi8P1phLXay-5" value="" style="edgeStyle=orthogonalEdgeStyle;rounded=0;orthogonalLoop=1;jettySize=auto;html=1;" edge="1" parent="1" source="KPeE3m79HYi8P1phLXay-2" target="KPeE3m79HYi8P1phLXay-4">
          <mxGeometry relative="1" as="geometry" />
        </mxCell>
        <mxCell id="KPeE3m79HYi8P1phLXay-2" value="input&lt;div&gt;angka&lt;/div&gt;" style="shape=parallelogram;perimeter=parallelogramPerimeter;whiteSpace=wrap;html=1;fixedSize=1;strokeWidth=2;" vertex="1" parent="1">
          <mxGeometry x="350" y="350" width="120" height="60" as="geometry" />
        </mxCell>
        <mxCell id="KPeE3m79HYi8P1phLXay-7" value="" style="edgeStyle=orthogonalEdgeStyle;rounded=0;orthogonalLoop=1;jettySize=auto;html=1;" edge="1" parent="1" source="KPeE3m79HYi8P1phLXay-4" target="KPeE3m79HYi8P1phLXay-6">
          <mxGeometry relative="1" as="geometry" />
        </mxCell>
        <mxCell id="KPeE3m79HYi8P1phLXay-8" value="True" style="edgeLabel;html=1;align=center;verticalAlign=middle;resizable=0;points=[];" vertex="1" connectable="0" parent="KPeE3m79HYi8P1phLXay-7">
          <mxGeometry x="-0.265" relative="1" as="geometry">
            <mxPoint as="offset" />
          </mxGeometry>
        </mxCell>
        <mxCell id="KPeE3m79HYi8P1phLXay-12" value="" style="edgeStyle=orthogonalEdgeStyle;rounded=0;orthogonalLoop=1;jettySize=auto;html=1;" edge="1" parent="1" source="KPeE3m79HYi8P1phLXay-4" target="KPeE3m79HYi8P1phLXay-11">
          <mxGeometry relative="1" as="geometry" />
        </mxCell>
        <mxCell id="KPeE3m79HYi8P1phLXay-16" value="false" style="edgeLabel;html=1;align=center;verticalAlign=middle;resizable=0;points=[];" vertex="1" connectable="0" parent="KPeE3m79HYi8P1phLXay-12">
          <mxGeometry x="-0.2764" y="-1" relative="1" as="geometry">
            <mxPoint x="-1" as="offset" />
          </mxGeometry>
        </mxCell>
        <mxCell id="KPeE3m79HYi8P1phLXay-4" value="apakah nilai digit?" style="rhombus;whiteSpace=wrap;html=1;strokeWidth=2;" vertex="1" parent="1">
          <mxGeometry x="370" y="480" width="80" height="80" as="geometry" />
        </mxCell>
        <mxCell id="KPeE3m79HYi8P1phLXay-10" value="" style="edgeStyle=orthogonalEdgeStyle;rounded=0;orthogonalLoop=1;jettySize=auto;html=1;" edge="1" parent="1" source="KPeE3m79HYi8P1phLXay-6" target="KPeE3m79HYi8P1phLXay-9">
          <mxGeometry relative="1" as="geometry" />
        </mxCell>
        <mxCell id="KPeE3m79HYi8P1phLXay-6" value="Konversi nilai ke int" style="whiteSpace=wrap;html=1;strokeWidth=2;" vertex="1" parent="1">
          <mxGeometry x="520" y="585" width="120" height="60" as="geometry" />
        </mxCell>
        <mxCell id="KPeE3m79HYi8P1phLXay-15" style="edgeStyle=orthogonalEdgeStyle;rounded=0;orthogonalLoop=1;jettySize=auto;html=1;exitX=0.5;exitY=1;exitDx=0;exitDy=0;" edge="1" parent="1" source="KPeE3m79HYi8P1phLXay-9" target="KPeE3m79HYi8P1phLXay-14">
          <mxGeometry relative="1" as="geometry">
            <mxPoint x="410" y="890" as="targetPoint" />
          </mxGeometry>
        </mxCell>
        <mxCell id="KPeE3m79HYi8P1phLXay-9" value="Return&lt;div&gt;nilai&lt;/div&gt;" style="whiteSpace=wrap;html=1;strokeWidth=2;" vertex="1" parent="1">
          <mxGeometry x="520" y="690" width="120" height="60" as="geometry" />
        </mxCell>
        <mxCell id="KPeE3m79HYi8P1phLXay-13" style="edgeStyle=orthogonalEdgeStyle;rounded=0;orthogonalLoop=1;jettySize=auto;html=1;exitX=0.5;exitY=1;exitDx=0;exitDy=0;entryX=0;entryY=0.5;entryDx=0;entryDy=0;" edge="1" parent="1" source="KPeE3m79HYi8P1phLXay-11" target="KPeE3m79HYi8P1phLXay-2">
          <mxGeometry relative="1" as="geometry">
            <mxPoint x="120" y="880" as="targetPoint" />
            <Array as="points">
              <mxPoint x="260" y="610" />
              <mxPoint x="150" y="610" />
              <mxPoint x="150" y="380" />
            </Array>
          </mxGeometry>
        </mxCell>
        <mxCell id="KPeE3m79HYi8P1phLXay-11" value="Output&lt;div&gt;Input tidak valid harap masukkan angka&lt;/div&gt;" style="shape=parallelogram;perimeter=parallelogramPerimeter;whiteSpace=wrap;html=1;fixedSize=1;strokeWidth=2;" vertex="1" parent="1">
          <mxGeometry x="200" y="585" width="120" height="60" as="geometry" />
        </mxCell>
        <mxCell id="KPeE3m79HYi8P1phLXay-14" value="End" style="strokeWidth=2;html=1;shape=mxgraph.flowchart.start_1;whiteSpace=wrap;" vertex="1" parent="1">
          <mxGeometry x="540" y="890" width="80" height="60" as="geometry" />
        </mxCell>
        <mxCell id="KPeE3m79HYi8P1phLXay-17" style="edgeStyle=orthogonalEdgeStyle;rounded=0;orthogonalLoop=1;jettySize=auto;html=1;exitX=0.5;exitY=1;exitDx=0;exitDy=0;exitPerimeter=0;" edge="1" parent="1" source="KPeE3m79HYi8P1phLXay-14" target="KPeE3m79HYi8P1phLXay-14">
          <mxGeometry relative="1" as="geometry" />
        </mxCell>
      </root>
    </mxGraphModel>
  </diagram>
</mxfile>
